<svg width="36" height="36" viewBox="0 0 36 36" fill="none" xmlns="http://www.w3.org/2000/svg">
<path d="M30 14.4C30 8.4 27.6 6 21.6 6H14.4C8.4 6 6 8.4 6 14.4V21.6C6 27.6 8.4 30 14.4 30" stroke="#EFF2FB" stroke-width="1.5" stroke-linecap="round" stroke-linejoin="round"/>
<path d="M24.525 12C23.7 10.95 22.32 10.5 20.25 10.5H15.75C12 10.5 10.5 12 10.5 15.75V20.25C10.5 22.32 10.95 23.7 11.985 24.525M12.015 6V3M18 6V3M24 6V3M30 12H33M12.015 30V33M3 12H6M3 18H6M3 24H6" stroke="#EFF2FB" stroke-width="1.5" stroke-linecap="round" stroke-linejoin="round"/>
<path d="M25.065 27.885C25.3782 27.885 25.6883 27.8233 25.9777 27.7034C26.2671 27.5836 26.53 27.4079 26.7514 27.1864C26.9729 26.965 27.1486 26.7021 27.2684 26.4127C27.3883 26.1233 27.45 25.8132 27.45 25.5C27.45 25.1868 27.3883 24.8767 27.2684 24.5873C27.1486 24.2979 26.9729 24.035 26.7514 23.8135C26.53 23.5921 26.2671 23.4164 25.9777 23.2965C25.6883 23.1767 25.3782 23.115 25.065 23.115C24.4325 23.115 23.8258 23.3663 23.3785 23.8135C22.9313 24.2608 22.68 24.8674 22.68 25.5C22.68 26.1325 22.9313 26.7392 23.3785 27.1864C23.8258 27.6337 24.4325 27.885 25.065 27.885Z" stroke="#EFF2FB" stroke-width="1.5" stroke-miterlimit="10" stroke-linecap="round" stroke-linejoin="round"/>
<path d="M17.115 26.19V24.795C17.115 23.97 17.79 23.295 18.615 23.295C20.055 23.295 20.64 22.275 19.92 21.03C19.8208 20.8588 19.7565 20.6697 19.7307 20.4735C19.7049 20.2773 19.7182 20.078 19.7698 19.887C19.8214 19.696 19.9103 19.5171 20.0313 19.3606C20.1523 19.204 20.3031 19.073 20.475 18.975L21.84 18.18C22.47 17.805 23.28 18.03 23.655 18.66L23.745 18.81C24.465 20.055 25.635 20.055 26.355 18.81L26.445 18.66C26.82 18.03 27.63 17.82 28.26 18.18L29.625 18.975C30.345 19.395 30.6 20.31 30.18 21.03C29.46 22.275 30.045 23.295 31.485 23.295C32.31 23.295 32.985 23.97 32.985 24.795V26.19C32.985 27.015 32.31 27.69 31.485 27.69C30.045 27.69 29.46 28.71 30.18 29.955C30.2792 30.1262 30.3435 30.3153 30.3693 30.5115C30.3951 30.7077 30.3818 30.907 30.3302 31.098C30.2786 31.289 30.1897 31.4679 30.0687 31.6245C29.9477 31.781 29.7969 31.912 29.625 32.01L28.26 32.805C27.63 33.18 26.82 32.955 26.445 32.325L26.355 32.175C25.635 30.93 24.465 30.93 23.745 32.175L23.655 32.325C23.28 32.955 22.47 33.165 21.84 32.805L20.475 32.01C19.755 31.59 19.5 30.675 19.92 29.955C20.64 28.71 20.055 27.69 18.615 27.69C18.4175 27.692 18.2215 27.6546 18.0386 27.5799C17.8557 27.5052 17.6896 27.3948 17.5499 27.2551C17.4102 27.1155 17.2998 26.9493 17.2251 26.7664C17.1504 26.5835 17.113 26.3876 17.115 26.19Z" stroke="#EFF2FB" stroke-width="1.5" stroke-miterlimit="10" stroke-linecap="round" stroke-linejoin="round"/>
</svg>
