<svg width="24" height="24" viewBox="0 0 24 24" fill="none" xmlns="http://www.w3.org/2000/svg">
<path d="M9 22H15C20 22 22 20 22 15V9C22 4 20 2 15 2H9C4 2 2 4 2 9V15C2 20 4 22 9 22Z" stroke="#ABAEB7" stroke-width="1.5" stroke-linecap="round" stroke-linejoin="round"/>
<path d="M22.002 10.91H14.352M9.65 10.91H2M14.351 10.91C14.251 11.62 13.831 12.22 13.251 12.58V14.56C13.251 14.8915 13.1193 15.2095 12.8849 15.4439C12.6505 15.6783 12.3325 15.81 12.001 15.81C11.6695 15.81 11.3515 15.6783 11.1171 15.4439C10.8827 15.2095 10.751 14.8915 10.751 14.56V12.58C10.171 12.22 9.751 11.62 9.651 10.91C9.631 10.8 9.621 10.68 9.621 10.56C9.621 9.04 11.061 7.86 12.641 8.28C13.441 8.49 14.091 9.14 14.301 9.94C14.391 10.27 14.401 10.6 14.351 10.91Z" stroke="#ABAEB7" stroke-width="1.5" stroke-miterlimit="10"/>
</svg>
