<svg width="72" height="36" viewBox="0 0 72 36" fill="none" xmlns="http://www.w3.org/2000/svg">
<path d="M9 0C4.02944 0 0 4.36172 0 9.74218V19.4844C0 24.8648 4.02944 29.2265 9 29.2265H31.2452L34.5332 35.3911C34.9662 36.203 36.0487 36.203 36.4817 35.3911L39.7697 29.2265H63C67.9706 29.2265 72 24.8648 72 19.4844V9.74218C72 4.36172 67.9706 0 63 0H9Z" fill="#EFF2FB"/>
<path d="M31.6864 28.9912L31.5452 28.7265H31.2452H9C4.34215 28.7265 0.5 24.6267 0.5 19.4844V9.74218C0.5 4.59982 4.34215 0.5 9 0.5H63C67.6579 0.5 71.5 4.59982 71.5 9.74218V19.4844C71.5 24.6267 67.6579 28.7265 63 28.7265H39.7697H39.4697L39.3285 28.9912L36.0406 35.1558C35.7958 35.6147 35.2191 35.6147 34.9743 35.1558L31.6864 28.9912Z" stroke="#2D55B4" stroke-opacity="0.1"/>
</svg>
